<?xml version="1.0" encoding="utf-8"?>
<!-- Generator: Adobe Illustrator 25.0.0, SVG Export Plug-In . SVG Version: 6.00 Build 0)  -->
<svg version="1.1" id="Layer_1" xmlns="http://www.w3.org/2000/svg" xmlns:xlink="http://www.w3.org/1999/xlink" x="0px" y="0px"
	 width="946.2px" height="343.8px" viewBox="0 0 946.2 343.8" style="enable-background:new 0 0 946.2 343.8;" xml:space="preserve"
	>
<style type="text/css">
	.st0{fill:#EC1C24;}
	.st1{fill:#231F20;}
	.st2{fill-rule:evenodd;clip-rule:evenodd;fill:#231F20;}
	.st3{fill-rule:evenodd;clip-rule:evenodd;}
</style>
<rect x="17.5" y="19.3" class="st0" width="223.6" height="224.4"/>
<rect x="67.8" y="76.5" class="st1" width="123.1" height="110.1"/>
<path class="st0" d="M79.6,186.6h-7.2c0-0.9-0.1-1.8-0.1-2.8v-0.4l42.7-54.9c3.6-0.9,7.3-1.5,11.1-1.7L79.6,186.6z M94.3,186.6h-9.1
	l46.6-59.9c2.8,0.1,5.6,0.5,8.3,1L94.3,186.6z M109,186.6h-9.1l44.9-57.7c2.4,0.7,4.8,1.5,7.1,2.5L109,186.6z M123.7,186.6h-9.1
	l41.4-53.2c2.1,1.1,4.2,2.4,6.1,3.8L123.7,186.6z M138.4,186.6h-9.1l36.4-46.7c1.8,1.5,3.6,3.2,5.2,4.9L138.4,186.6z M153,186.6h-9
	l29.9-38.4c1.6,2,3,4,4.3,6.2L153,186.6z M167.7,186.6h-9.1l21.8-28c1.2,2.5,2.2,5,3.1,7.7L167.7,186.6z M186.2,186.6h-12.8
	l11.6-14.9c0.8,3.9,1.3,8,1.3,12.1C186.2,184.8,186.2,185.7,186.2,186.6z M73,175.4c3-20.1,16.4-36.8,34.5-44.4L73,175.4z"/>
<polygon class="st1" points="277.9,243.6 315.6,243.6 315.6,172 334.8,146.2 393.9,243.6 439.2,243.6 359.3,116.7 431.9,19.6 
	387.2,19.6 315.6,117.9 315.6,19.6 277.9,19.6 "/>
<path class="st2" d="M524.7,65.3v103.4c0,9.4-3.5,24-23.5,24c-20.4,0-22.6-14.5-23-24V65.3h-25.1v103c0,14.7,5.1,32.3,25.3,46.1
	c6.7,3.1,15.1,4.9,23.7,4.9s17.3-2,24.9-6.1c20.2-12.1,22.8-31.7,22.8-44.8v-103L524.7,65.3L524.7,65.3z M507.7,25.8h18.4
	 M526.1,25.8h-18.4v25h18.4V25.8z M476.5,50.8h18.4v-25h-18.4V50.8z"/>
<polygon class="st1" points="644.2,214.5 665.8,93.7 665.8,214.5 690.9,214.5 690.9,65.3 654.4,65.3 631.6,179.9 608.9,65.3 
	572.2,65.3 572.2,214.5 597.3,214.5 597.3,93.7 619.1,214.5 "/>
<path class="st2" d="M762,101.1l16.1,57.9h-31.2L762,101.1z M776.2,65.3h-28.8l-42.6,149.3h25.7l8.6-29.9h45.1l8.4,29.9H818
	L776.2,65.3z"/>
<path class="st2" d="M869.7,218.6l-6.1,19.5c2.4-0.8,5.1-3.9,9.8-1.8c3.9,1.4,4.7,4.7,4.7,8c-2.2,5.5-6.5,7-11.2,7
	c-2.9,2.5-11.6-4.1-15.7-6.3l-3.5,10.9c8.6,4.1,20.2,8.2,33,4.9c6.3-1.6,11.2-6.6,11.6-16.8c0.6-10.6-4.1-14.7-7.3-15.6
	c-4.3-0.8-7.7-0.4-11,0.8l3.1-10.4h-7.4L869.7,218.6L869.7,218.6z M923.1,110.7c1-4.9-0.6-18.8-6.9-28.9c-11.8-18.4-34.7-19-41.2-19
	c-29.8,0-43.9,17.6-45.7,41.4c-2,24.2,8.8,35.8,22,41.4c15.7,6.6,39.8,6.6,47.7,16.8c6.1,7.4,4.9,19-0.4,25.2
	c-3.3,3.7-11,6.8-19.4,7c-8.4,0.4-17.5-1.8-23-8.8c-4.1-5.3-5.1-11.5-5.1-15.4h-24.5c0.8,14.1,6.3,28.9,17.1,38.5
	c9,8,23.7,10.6,30,10.4c13.5-0.2,27.7-2.3,38.1-10.4c15.1-12.1,21.6-47.5,7.5-65.5c-7.5-9.6-22-13.3-28.8-14.7
	c-4.7-1-27.7-5.5-30.6-9.2c-5.5-2.7-8.4-4.7-7.5-14.9c0.8-12.3,9.8-17.4,22-17.2c17.1,0.4,25.3,11.5,25.1,23.5h23.6L923.1,110.7
	L923.1,110.7z"/>
<g>
	<ellipse class="st3" cx="532.1" cy="272.9" rx="2.7" ry="3.2"/>
	<path class="st3" d="M794.1,270.4c-0.4,0.3-0.6,1.7-0.6,3.2c0,2.3,0.3,2.6,3.2,2.6c3,0,3.2-0.2,3.2-3.2c0-2.9-0.3-3.2-2.6-3.2
		C795.8,269.7,794.4,270,794.1,270.4z"/>
	<path class="st3" d="M281.6,300.3v21.5h2.7h2.7l0.2-17.5l0.3-17.5l5.8,17.5c5.8,17,5.9,17.5,8.4,17.5c2.2,0,2.7-0.5,3.8-4.4
		c0.7-2.4,3.4-10.1,5.8-17.1l4.4-12.8l0.3,17.1l0.2,17.2h2.7h2.7v-21.5v-21.5h-3.6c-3.8,0-3.7-0.4-8.2,13.7
		c-1.1,3.3-2.3,6.6-2.6,7.3c-0.4,0.7-1.6,4.7-3,8.6l-2.4,7.3l-5.3-16c-7.5-22.8-6.5-20.9-11.2-20.9h-4V300.3z"/>
	<path class="st3" d="M342,280.9c-0.4,1.2-2.1,5.8-3.7,10.3c-1.6,4.5-3.3,8.6-3.7,9.1c-0.4,0.5-1.1,2.1-1.6,3.7
		c-0.5,1.5-2.2,6.1-3.7,10.2l-2.7,7.6h2.9c2.9,0,3.1-0.2,5.1-6.4l2.1-6.4h9.3h9.3l2.2,6.4c2.2,6.2,2.3,6.4,5.3,6.4
		c3.7,0,4.2,1.7-4.8-20.1c-3.8-9.3-7.5-18.3-8-19.9c-0.8-2.6-1.4-2.9-4-2.9C343.5,278.9,342.7,279.3,342,280.9z M347,287.1
		c0.3,1.5,1.8,5.8,3.3,9.6c1.5,3.8,2.7,7.1,2.7,7.4c0,0.2-3.1,0.4-6.9,0.4c-4.9,0-6.9-0.4-6.9-1.2c0-0.6,1.3-4.4,2.7-8.2
		c1.6-3.9,2.7-8,2.7-9C344.7,283.3,346.3,284.1,347,287.1z"/>
	<path class="st3" d="M370.3,300.3v21.5h2.7h2.7l0.2-16.6l0.3-16.5l11,16.5c10.4,15.8,11.2,16.6,14,16.6h2.9v-21.5v-21.5h-2.7h-2.7
		l-0.2,16.6l-0.3,16.5l-11-16.5c-10.4-15.8-11.2-16.6-13.9-16.6h-3V300.3z"/>
	<path class="st3" d="M409.6,279.4c0,0.4,3.5,5.8,7.8,12.2l7.8,11.6v9.3v9.3h2.7h2.7V313c0-7.9,0.3-9.2,2.2-12.1
		c1.2-1.8,5.1-7.5,8.7-12.7l6.4-9.3h-3.4c-3.7,0.1-3.1-0.6-12.4,14.5c-3,4.9-3.7,5.7-4.6,4.4c-0.5-0.8-3.5-5.4-6.5-10.2
		c-5.1-8-5.7-8.7-8.4-8.7C411,278.9,409.6,279.1,409.6,279.4z"/>
	<polygon class="st3" points="453.5,300.3 453.5,321.8 469.1,321.8 484.6,321.8 484.4,319.4 484.1,317.1 471.6,317.2 458.9,317.3 
		458.9,309.9 458.9,302.6 470.4,302.6 481.8,302.6 481.8,299.9 481.8,297.1 470.4,297.1 458.9,297.1 458.9,290.7 458.9,284.3 
		471.3,284.3 483.6,284.3 483.6,281.6 483.6,278.9 468.5,278.9 453.5,278.9 	"/>
	<path class="st3" d="M491.8,281.6v2.7l11.3,0.3l11.3,0.3l-3,3.7c-13.3,15.9-22.4,28.3-22.4,30.7v2.7H506h16.9v-2.3v-2.3h-13.3
		c-8.3,0-13.3-0.4-13.3-0.9c0-0.8,19.3-25.3,24-30.5c0.8-1,1.6-2.9,1.6-4.4v-2.6h-15.1h-15.1V281.6z"/>
	<polygon class="st3" points="529.3,300.3 529.3,321.8 532.1,321.8 534.8,321.8 534.8,300.3 534.8,278.9 532.1,278.9 529.3,278.9 	
		"/>
	<polygon class="st3" points="542.1,281.6 542.1,284.3 549,284.3 555.8,284.3 555.8,303.1 555.8,321.8 558.6,321.8 561.3,321.8 
		561.3,303.1 561.3,284.3 568.2,284.3 575,284.3 575,281.6 575,278.9 558.6,278.9 542.1,278.9 	"/>
	<path class="st3" d="M602.8,280.4c-3.7,1.8-5.8,5.6-5.8,10.3c0,5.1,3.4,8.2,11.2,10.4c11.1,3.1,13.6,4.3,14.5,6.7
		c1.1,2.9-0.6,6.7-3.7,8.2c-2.7,1.4-9,1.6-12.2,0.4c-3-1.2-6.1-4.6-6.1-6.7c0-1.2-0.7-1.6-2.7-1.6c-3.4,0-3.7,2.4-0.8,7
		c2.8,4.7,7.7,6.7,15.6,6.7c5.7,0,7.2-0.4,10.1-2.4c3.9-2.7,5.2-5.2,5.2-10.6c0-3.1-0.5-4.2-3.2-6.8c-1.8-1.7-5-3.5-7.1-4
		c-11.3-2.8-14.2-3.9-15.2-6c-1.2-2.7,0-6.3,2.7-7.7c1.2-0.6,4.2-0.9,7.3-0.7c4.2,0.3,5.7,0.8,7.1,2.7c1,1.2,1.8,2.9,1.9,3.7
		c0,1.2,0.7,1.6,2.7,1.6c2.2,0,2.7-0.4,2.7-1.9c0-3.1-3-7.3-6.6-9.1C616.3,278.4,606.9,278.3,602.8,280.4z"/>
	<path class="st3" d="M641.4,296c-3.5,9.4-6.6,17.5-6.9,18c-0.4,0.5-0.9,1.7-1.1,2.7c-0.3,1-0.8,2.6-1.2,3.4
		c-0.5,1.4-0.2,1.6,2.7,1.6c2.2,0,3.3-0.5,3.3-1.3c0-0.7,0.9-3.7,2-6.4l1.9-5.2l9.1,0.3l9.1,0.3l2.3,6.1c2.2,6,2.4,6.2,5.4,6.2
		c2.2,0,3-0.4,2.7-1.2c-0.3-0.5-2.8-6.9-5.7-13.9c-2.8-7-5.7-14.1-6.3-15.5c-0.7-1.6-2-4.9-2.9-7.6c-1.6-4.5-1.8-4.8-4.9-4.8h-3.2
		L641.4,296z M654.5,293.9c1.6,4.5,3.2,8.8,3.5,9.3c0.3,0.9-1.6,1.2-7.1,1.2c-6.8,0-7.4-0.2-6.9-1.6c0.4-0.8,1.3-3.4,2-5.7
		c0.8-2.3,1.7-4.6,2.2-5c0.4-0.5,0.9-2.5,1.3-4.4c0.4-1.9,1-3.2,1.4-2.7C651.2,285.4,652.9,289.4,654.5,293.9z"/>
	<path class="st3" d="M675.6,300.3v21.5h2.7h2.7l0.2-16.5l0.3-16.5l11,16.5c10.5,15.8,11.1,16.5,13.9,16.5h3v-21.5v-21.5h-2.7h-2.7
		l-0.2,16.6l-0.3,16.7l-11-16.6C682,279.8,681.3,279,678.6,279l-3-0.1V300.3z"/>
	<path class="st3" d="M723.6,296c-3.5,9.4-6.6,17.5-6.9,18c-0.4,0.5-0.9,1.7-1.1,2.7c-0.3,1-0.8,2.6-1.2,3.5
		c-0.6,1.5-0.3,1.6,2.3,1.4c2.7-0.3,3.1-0.7,5.3-6.5l2.3-6.2l9.1,0.3l9.1,0.3l2.3,6.1c2.2,6,2.4,6.2,5.4,6.2c2.2,0,3-0.4,2.7-1.2
		c-0.3-0.5-2.8-6.9-5.7-13.9s-5.7-14.1-6.3-15.5c-0.7-1.6-2-4.9-2.9-7.6c-1.6-4.5-1.8-4.8-4.9-4.8h-3.2L723.6,296z M736.8,293.9
		c1.6,4.5,3.2,8.8,3.5,9.3c0.3,0.9-1.5,1.2-7,1.2c-4.1,0-7.4-0.2-7.4-0.4c0-0.3,1.2-3.6,2.7-7.4c1.5-3.8,3-8.2,3.3-9.7
		C732.6,283.3,733.1,284.1,736.8,293.9z"/>
	<path class="st3" d="M751.2,281.3c0.9,1.5,4.7,7,8.2,12.4l6.6,10v9v9h2.7h2.7v-9.2v-9.1l6.1-8.9c3.3-4.8,7-10.1,8.2-11.7
		c2.7-3.7,2.7-4-0.8-4c-2.8,0-3.5,0.7-9.6,10.1c-4.5,6.9-6.8,9.7-7.3,9c-0.4-0.6-1.1-1.8-1.6-2.7c-9.3-15.4-10.1-16.3-13.9-16.3
		h-3.1L751.2,281.3z"/>
	<polygon class="st3" points="794.4,300.3 794.4,321.8 797.1,321.8 799.9,321.8 799.9,300.3 799.9,278.9 797.1,278.9 794.4,278.9 	
		"/>
	<path class="st3" d="M827.3,299.2c-4.2,11.2-7.8,20.9-8,21.5c-0.3,0.8,0.5,1.2,2.4,1.2c2.6,0,2.8-0.5,5-6.2l2.3-6.1l9.1-0.3
		l9.1-0.3l2.5,6.5c2.4,6.2,2.6,6.4,5.6,6.4h3.1l-1.5-3.5c-0.8-1.8-2.6-6.3-4-9.8c-1.4-3.6-4.5-11.2-6.9-16.9
		c-2.4-5.8-4.5-11.1-4.8-11.7c-0.3-0.5-1.8-1.1-3.4-1.1h-2.9L827.3,299.2z M841.4,293.4c1.7,4.7,3.2,9,3.2,9.8c0,1-1.6,1.3-6.9,1.3
		c-3.8,0-6.8-0.4-6.6-0.7c0.2-0.5,1.7-4.9,3.5-10.1s3.2-9.1,3.4-9C838.1,284.8,839.6,288.7,841.4,293.4z"/>
	<path class="st3" d="M885.2,280.4c-3.7,1.8-5.8,5.6-5.8,10.3c0,5.1,3.4,8.2,11.2,10.4c11.1,3.1,13.6,4.3,14.5,6.7
		c1.1,2.9-0.6,6.7-3.7,8.2c-2.7,1.4-9,1.6-12.2,0.4c-3-1.2-6.1-4.6-6.1-6.7c0-1.2-0.7-1.6-2.7-1.6c-3.4,0-3.7,2-0.8,6.9
		c1.9,3.2,7.5,6.9,10.4,6.9c0.9,0,1.4,0.9,1.4,2.7c0,2,0.5,2.7,1.6,2.7c0.9,0,2,0.3,2.3,0.6c1.2,1.2-1.5,3-4.5,3
		c-2.5,0-3.1,0.4-3.1,1.8c0,2.3,3.9,2.5,8.7,0.5c2.7-1.2,3.2-1.8,3.2-4.2c0-2.1-0.5-3-1.8-3.4c-1-0.3-1.8-1-1.8-1.6
		c0-0.7-0.9-1.5-2-1.6c-1.2-0.2,0.1-0.5,2.8-0.5c8.7-0.2,13.8-4.8,13.8-12.3c0-3.9-0.4-4.8-3.2-7.5c-1.8-1.7-5-3.5-7.1-4
		c-11.3-2.8-14.2-3.9-15.2-6c-2.4-5.2,2.7-9.1,10.9-8.4c4.8,0.5,8.1,3.1,8.2,6.4c0,1.2,0.7,1.6,2.7,1.6c2.2,0,2.7-0.4,2.7-1.9
		c0-3.1-3-7.3-6.6-9.1C898.7,278.4,889.3,278.3,885.2,280.4z"/>
	<circle class="st3" cx="866.6" cy="319.1" r="2.7"/>
	<circle class="st3" cx="922.3" cy="319.1" r="2.7"/>
</g>
</svg>
